<svg width="47" height="47" viewBox="0 0 47 47" fill="none" xmlns="http://www.w3.org/2000/svg">
<path d="M18.2321 13.1397C18.0505 13.3209 17.9065 13.5361 17.8082 13.773C17.7099 14.0099 17.6594 14.2639 17.6594 14.5204C17.6594 14.7768 17.7099 15.0308 17.8082 15.2677C17.9065 15.5046 18.0505 15.7198 18.2321 15.901L25.8304 23.4993L18.2321 31.0977C17.8659 31.4638 17.6602 31.9604 17.6602 32.4783C17.6602 32.9961 17.8659 33.4927 18.2321 33.8589C18.5982 34.2251 19.0949 34.4308 19.6127 34.4308C20.1305 34.4308 20.6272 34.2251 20.9933 33.8589L29.9821 24.8702C30.1636 24.689 30.3076 24.4738 30.4059 24.2369C30.5042 24 30.5548 23.746 30.5548 23.4895C30.5548 23.233 30.5042 22.9791 30.4059 22.7422C30.3076 22.5053 30.1636 22.2901 29.9821 22.1089L20.9933 13.1202C20.2491 12.376 18.9958 12.376 18.2321 13.1397Z" fill="#F0F0F0"/>
</svg>
